<?xml version="1.0" encoding="UTF-8" standalone="no"?>
<!DOCTYPE svg PUBLIC "-//W3C//DTD SVG 1.1//EN" "http://www.w3.org/Graphics/SVG/1.1/DTD/svg11.dtd">
<svg width="100%" height="100%" viewBox="0 0 249 41" version="1.1" xmlns="http://www.w3.org/2000/svg" xmlns:xlink="http://www.w3.org/1999/xlink" xml:space="preserve" xmlns:serif="http://www.serif.com/" style="fill-rule:evenodd;clip-rule:evenodd;stroke-linejoin:round;stroke-miterlimit:2;">
    <g transform="matrix(1,0,0,1,-9.41979e-05,0.000178727)">
        <g transform="matrix(1,0,0,1,-1.20801,-0.711928)">
            <path d="M58.567,28.139L58.567,20.497C58.567,18.616 57.566,16.908 55.595,16.908C53.654,16.908 52.508,18.616 52.508,20.497L52.508,28.139L48.922,28.139L48.922,13.84L52.244,13.84L52.508,15.578C53.273,14.129 54.949,13.609 56.33,13.609C58.066,13.609 59.8,14.304 60.624,16.271C61.918,14.245 63.595,13.667 65.476,13.667C69.593,13.667 71.622,16.155 71.622,20.44L71.622,28.139L68.034,28.139L68.034,20.44C68.034,18.559 67.24,16.966 65.301,16.966C63.359,16.966 62.153,18.616 62.153,20.497L62.153,28.139L58.567,28.139Z" style="fill:rgb(51,51,89);fill-rule:nonzero;"/>
            <path d="M86.765,13.87L90.206,13.87L90.206,28.139L86.824,28.139L86.647,26.056C85.825,27.734 83.561,28.543 81.943,28.573C77.651,28.603 74.474,25.997 74.474,20.989C74.474,16.069 77.798,13.493 82.033,13.522C83.973,13.522 85.824,14.419 86.647,15.838L86.765,13.87ZM78.062,20.989C78.062,23.71 79.973,25.331 82.355,25.331C88,25.331 88,16.677 82.355,16.677C79.973,16.677 78.062,18.269 78.062,20.989Z" style="fill:rgb(51,51,89);fill-rule:nonzero;"/>
            <path d="M93.236,34.105L93.236,13.87L96.589,13.87L96.822,15.838C97.94,14.245 99.882,13.551 101.528,13.551C105.996,13.551 108.968,16.822 108.968,21.019C108.968,25.187 106.291,28.487 101.645,28.487C100.118,28.487 97.852,28.023 96.822,26.461L96.822,34.104L93.236,34.104L93.236,34.105ZM105.381,21.019C105.381,18.791 103.851,16.966 101.264,16.966C98.676,16.966 97.146,18.791 97.146,21.019C97.146,23.247 98.823,25.073 101.264,25.073C103.705,25.073 105.381,23.247 105.381,21.019Z" style="fill:rgb(51,51,89);fill-rule:nonzero;"/>
            <path d="M115.378,9.528L115.378,13.84L120.319,13.84L120.319,15.026L115.378,15.026L115.378,23.739C115.378,25.679 115.791,27.04 118.055,27.04C118.76,27.04 119.554,26.808 120.289,26.461L120.789,27.617C119.877,28.054 118.965,28.342 118.055,28.342C114.968,28.342 113.967,26.547 113.967,23.74L113.967,15.027L110.879,15.027L110.879,13.84L113.967,13.84L113.967,9.672L115.378,9.528Z" style="fill:rgb(51,51,89);fill-rule:nonzero;"/>
            <path d="M125.554,9.18C125.554,10.685 123.23,10.685 123.23,9.18C123.23,7.675 125.554,7.675 125.554,9.18ZM123.643,13.782L123.643,28.14L125.082,28.14L125.082,13.782L123.643,13.782Z" style="fill:rgb(51,51,89);fill-rule:nonzero;"/>
            <rect x="129.199" y="7.878" width="1.441" height="20.261" style="fill:rgb(51,51,89);"/>
            <path d="M153.488,13.84L153.547,16.389C154.459,14.448 156.518,13.696 158.37,13.696C159.459,13.667 160.515,13.956 161.486,14.536L160.839,15.693C160.076,15.23 159.221,15.027 158.37,15.027C155.663,15.057 153.576,17.198 153.576,19.804L153.576,28.14L152.135,28.14L152.135,13.84L153.488,13.84Z" style="fill:rgb(51,51,89);fill-rule:nonzero;"/>
            <path d="M135.54,23.414C135.541,23.415 135.543,23.417 135.543,23.418L147.303,20.354C147.302,20.349 147.302,20.345 147.302,20.341L135.54,23.414Z" style="fill:rgb(51,51,89);fill-rule:nonzero;"/>
            <path d="M141.214,27.28C138.654,27.28 136.461,25.701 135.543,23.458L135.535,23.458L135.542,23.457C135.542,23.456 135.541,23.455 135.54,23.454L147.301,20.38C147.301,20.385 147.302,20.389 147.302,20.394L148.555,20.068C148.049,16.446 144.956,13.658 141.214,13.658C137.12,13.658 133.802,16.996 133.802,21.113C133.802,25.23 137.12,28.569 141.214,28.569C144.276,28.569 146.905,26.7 148.035,24.037L146.855,23.532C145.921,25.734 143.747,27.28 141.214,27.28ZM135.083,21.113C135.083,17.708 137.828,14.946 141.214,14.946C143.862,14.946 146.117,16.634 146.976,18.999L135.16,22.085C135.11,21.768 135.083,21.444 135.083,21.113Z" style="fill:rgb(51,51,89);fill-rule:nonzero;"/>
        </g>
        <g transform="matrix(1,0,0,1,-1.20801,-0.711928)">
            <path d="M11.965,33.743C14.023,35.769 19.5,41.264 19.497,41.269C19.477,41.305 24.938,35.908 27.113,33.768L19.526,26.3L11.965,33.743Z" style="fill:rgb(58,24,136);fill-rule:nonzero;"/>
            <path d="M19.526,26.3L27.113,33.768C27.124,33.756 27.138,33.741 27.15,33.731L34.73,26.27L27.143,18.802L19.526,26.3Z" style="fill:rgb(3,161,196);fill-rule:nonzero;"/>
            <path d="M34.73,26.27L34.749,26.25C38.942,22.123 38.945,15.435 34.762,11.302L27.144,18.802L34.73,26.27Z" style="fill:rgb(5,208,223);fill-rule:nonzero;"/>
            <path d="M11.908,18.802L4.349,26.243C4.351,26.245 4.352,26.248 4.355,26.25L11.953,33.73C11.957,33.734 11.961,33.738 11.966,33.743L19.526,26.3L11.908,18.802Z" style="fill:rgb(118,31,232);fill-rule:nonzero;"/>
            <path d="M19.526,11.303L27.143,18.802L34.762,11.303C34.755,11.298 34.753,11.295 34.749,11.29L27.15,3.81C27.149,3.808 27.146,3.806 27.144,3.804L19.526,11.303Z" style="fill:rgb(255,170,1);fill-rule:nonzero;"/>
            <path d="M4.317,11.328C0.161,15.46 0.172,22.124 4.349,26.243L11.908,18.802L4.317,11.328Z" style="fill:rgb(241,23,93);fill-rule:nonzero;"/>
            <path d="M19.526,11.303L11.934,3.829L4.355,11.29C4.341,11.303 4.33,11.317 4.316,11.329L11.908,18.802L19.526,11.303Z" style="fill:rgb(251,58,27);fill-rule:nonzero;"/>
            <path d="M27.144,3.804C22.946,-0.321 16.148,-0.319 11.953,3.81L11.934,3.829L19.526,11.303L27.144,3.804Z" style="fill:rgb(251,201,53);fill-rule:nonzero;"/>
        </g>
        <g>
            <g transform="matrix(1.45413,0,0,1,-169.409,0.0892285)">
                <clipPath id="_clip1">
                    <path d="M226.069,4.272L247.012,12.076L243.057,34.519L222.114,26.715L226.069,4.272Z"/>
                </clipPath>
                <g clip-path="url(#_clip1)">
                    <path d="M270.382,12.81L232.413,12.81C231.562,12.81 230.871,13.815 230.871,15.052L230.871,25.472C230.871,26.692 231.552,27.683 232.391,27.683L270.382,27.683L270.382,12.81Z" style="fill:rgb(241,23,93);"/>
                </g>
            </g>
            <g transform="matrix(0.364213,0,0,0.364213,-18.0413,0.200674)">
                <g transform="matrix(30.2678,0,0,30.2678,514.098,66.0889)">
                    <path d="M0.267,-0.714L0.4,-0.714L0.675,-0L0.541,-0L0.474,-0.189L0.189,-0.189L0.122,-0L-0.007,-0L0.267,-0.714ZM0.223,-0.284L0.441,-0.284L0.334,-0.591L0.331,-0.591L0.223,-0.284Z" style="fill:white;fill-rule:nonzero;"/>
                </g>
                <g transform="matrix(30.2678,0,0,30.2678,534.287,66.0889)">
                    <path d="M0.076,-0.714L0.417,-0.714C0.496,-0.714 0.555,-0.697 0.594,-0.663C0.633,-0.629 0.653,-0.582 0.653,-0.521C0.653,-0.487 0.648,-0.459 0.638,-0.437C0.628,-0.414 0.616,-0.396 0.603,-0.383C0.59,-0.369 0.576,-0.359 0.564,-0.353C0.551,-0.347 0.541,-0.343 0.535,-0.341L0.535,-0.339C0.546,-0.338 0.557,-0.334 0.57,-0.329C0.582,-0.324 0.593,-0.315 0.604,-0.304C0.615,-0.292 0.624,-0.277 0.631,-0.258C0.638,-0.239 0.641,-0.216 0.641,-0.188C0.641,-0.146 0.644,-0.108 0.651,-0.074C0.657,-0.039 0.667,-0.015 0.68,-0L0.546,-0C0.537,-0.015 0.531,-0.032 0.53,-0.051C0.528,-0.07 0.527,-0.088 0.527,-0.105C0.527,-0.138 0.525,-0.166 0.521,-0.19C0.517,-0.213 0.51,-0.233 0.499,-0.249C0.488,-0.264 0.474,-0.276 0.456,-0.283C0.437,-0.29 0.414,-0.294 0.385,-0.294L0.201,-0.294L0.201,-0L0.076,-0L0.076,-0.714ZM0.201,-0.389L0.406,-0.389C0.446,-0.389 0.476,-0.399 0.497,-0.418C0.518,-0.436 0.528,-0.465 0.528,-0.503C0.528,-0.526 0.525,-0.544 0.518,-0.559C0.511,-0.573 0.502,-0.584 0.491,-0.592C0.479,-0.6 0.466,-0.605 0.451,-0.608C0.436,-0.611 0.42,-0.612 0.404,-0.612L0.201,-0.612L0.201,-0.389Z" style="fill:white;fill-rule:nonzero;"/>
                </g>
            </g>
        </g>
        <g transform="matrix(1,0,0,1,-28,0)">
            <g transform="matrix(-1.80316,-2.20824e-16,1.40521e-16,-1.14744,692.54,43.567)">
                <clipPath id="_clip2">
                    <path d="M230.871,28.481L262.117,28.481L264.774,12.186L230.871,12.186L230.871,28.481Z"/>
                </clipPath>
                <g clip-path="url(#_clip2)">
                    <path d="M270.382,12.81L232.699,12.81C231.69,12.81 230.871,14.097 230.871,15.683L230.871,24.808C230.871,26.395 231.691,27.683 232.7,27.683L270.382,27.683L270.382,12.81Z" style="fill:rgb(3,161,196);"/>
                </g>
            </g>
            <g transform="matrix(0.364213,0,0,0.364213,32.4999,0.200674)">
                <g transform="matrix(30.2678,0,0,30.2678,514.098,66.0889)">
                    <path d="M0.558,-0.487C0.553,-0.508 0.545,-0.527 0.536,-0.544C0.527,-0.561 0.515,-0.576 0.5,-0.589C0.485,-0.602 0.468,-0.612 0.449,-0.619C0.429,-0.626 0.406,-0.629 0.38,-0.629C0.342,-0.629 0.309,-0.621 0.282,-0.606C0.254,-0.591 0.231,-0.57 0.214,-0.545C0.197,-0.519 0.184,-0.49 0.176,-0.457C0.167,-0.424 0.163,-0.391 0.163,-0.357C0.163,-0.323 0.167,-0.29 0.176,-0.257C0.184,-0.224 0.197,-0.195 0.214,-0.17C0.231,-0.144 0.254,-0.123 0.282,-0.108C0.309,-0.093 0.342,-0.085 0.38,-0.085C0.408,-0.085 0.433,-0.09 0.454,-0.1C0.475,-0.109 0.494,-0.123 0.509,-0.14C0.524,-0.157 0.536,-0.176 0.545,-0.199C0.554,-0.222 0.559,-0.246 0.562,-0.272L0.684,-0.272C0.681,-0.229 0.672,-0.19 0.657,-0.155C0.641,-0.12 0.62,-0.089 0.593,-0.064C0.566,-0.038 0.535,-0.018 0.499,-0.004C0.463,0.01 0.423,0.017 0.38,0.017C0.327,0.017 0.279,0.007 0.237,-0.013C0.194,-0.032 0.158,-0.059 0.129,-0.093C0.1,-0.127 0.077,-0.167 0.062,-0.212C0.046,-0.257 0.038,-0.306 0.038,-0.357C0.038,-0.408 0.046,-0.456 0.062,-0.501C0.077,-0.546 0.1,-0.586 0.129,-0.62C0.158,-0.654 0.194,-0.681 0.237,-0.701C0.279,-0.721 0.327,-0.731 0.38,-0.731C0.42,-0.731 0.458,-0.725 0.493,-0.715C0.528,-0.704 0.56,-0.688 0.587,-0.667C0.614,-0.646 0.635,-0.62 0.652,-0.59C0.669,-0.56 0.679,-0.526 0.683,-0.487L0.558,-0.487Z" style="fill:white;fill-rule:nonzero;"/>
                </g>
                <g transform="matrix(30.2678,0,0,30.2678,535.951,66.0889)">
                    <path d="M0.38,-0.629C0.342,-0.629 0.309,-0.621 0.282,-0.606C0.254,-0.591 0.231,-0.57 0.214,-0.545C0.197,-0.519 0.184,-0.49 0.176,-0.457C0.167,-0.424 0.163,-0.391 0.163,-0.357C0.163,-0.323 0.167,-0.29 0.176,-0.257C0.184,-0.224 0.197,-0.195 0.214,-0.17C0.231,-0.144 0.254,-0.123 0.282,-0.108C0.309,-0.093 0.342,-0.085 0.38,-0.085C0.418,-0.085 0.451,-0.093 0.479,-0.108C0.506,-0.123 0.529,-0.144 0.546,-0.17C0.563,-0.195 0.576,-0.224 0.585,-0.257C0.593,-0.29 0.597,-0.323 0.597,-0.357C0.597,-0.391 0.593,-0.424 0.585,-0.457C0.576,-0.49 0.563,-0.519 0.546,-0.545C0.529,-0.57 0.506,-0.591 0.479,-0.606C0.451,-0.621 0.418,-0.629 0.38,-0.629ZM0.38,-0.731C0.433,-0.731 0.481,-0.721 0.524,-0.701C0.566,-0.681 0.602,-0.654 0.631,-0.62C0.66,-0.586 0.683,-0.546 0.699,-0.501C0.714,-0.456 0.722,-0.408 0.722,-0.357C0.722,-0.306 0.714,-0.257 0.699,-0.212C0.683,-0.167 0.66,-0.127 0.631,-0.093C0.602,-0.059 0.566,-0.032 0.524,-0.013C0.481,0.007 0.433,0.017 0.38,0.017C0.327,0.017 0.279,0.007 0.237,-0.013C0.194,-0.032 0.158,-0.059 0.129,-0.093C0.1,-0.127 0.077,-0.167 0.062,-0.212C0.046,-0.257 0.038,-0.306 0.038,-0.357C0.038,-0.408 0.046,-0.456 0.062,-0.501C0.077,-0.546 0.1,-0.586 0.129,-0.62C0.158,-0.654 0.194,-0.681 0.237,-0.701C0.279,-0.721 0.327,-0.731 0.38,-0.731Z" style="fill:white;fill-rule:nonzero;"/>
                </g>
                <g transform="matrix(30.2678,0,0,30.2678,558.955,66.0889)">
                    <path d="M0.071,-0.714L0.203,-0.714L0.529,-0.188L0.531,-0.188L0.531,-0.714L0.65,-0.714L0.65,-0L0.518,-0L0.193,-0.525L0.19,-0.525L0.19,-0L0.071,-0L0.071,-0.714Z" style="fill:white;fill-rule:nonzero;"/>
                </g>
                <g transform="matrix(30.2678,0,0,30.2678,580.808,66.0889)">
                    <path d="M0.008,-0.714L0.586,-0.714L0.586,-0.606L0.359,-0.606L0.359,-0L0.234,-0L0.234,-0.606L0.008,-0.606L0.008,-0.714Z" style="fill:white;fill-rule:nonzero;"/>
                </g>
                <g transform="matrix(30.2678,0,0,30.2678,598.757,66.0889)">
                    <path d="M0.076,-0.714L0.417,-0.714C0.496,-0.714 0.555,-0.697 0.594,-0.663C0.633,-0.629 0.653,-0.582 0.653,-0.521C0.653,-0.487 0.648,-0.459 0.638,-0.437C0.628,-0.414 0.616,-0.396 0.603,-0.383C0.59,-0.369 0.576,-0.359 0.564,-0.353C0.551,-0.347 0.541,-0.343 0.535,-0.341L0.535,-0.339C0.546,-0.338 0.557,-0.334 0.57,-0.329C0.582,-0.324 0.593,-0.315 0.604,-0.304C0.615,-0.292 0.624,-0.277 0.631,-0.258C0.638,-0.239 0.641,-0.216 0.641,-0.188C0.641,-0.146 0.644,-0.108 0.651,-0.074C0.657,-0.039 0.667,-0.015 0.68,-0L0.546,-0C0.537,-0.015 0.531,-0.032 0.53,-0.051C0.528,-0.07 0.527,-0.088 0.527,-0.105C0.527,-0.138 0.525,-0.166 0.521,-0.19C0.517,-0.213 0.51,-0.233 0.499,-0.249C0.488,-0.264 0.474,-0.276 0.456,-0.283C0.437,-0.29 0.414,-0.294 0.385,-0.294L0.201,-0.294L0.201,-0L0.076,-0L0.076,-0.714ZM0.201,-0.389L0.406,-0.389C0.446,-0.389 0.476,-0.399 0.497,-0.418C0.518,-0.436 0.528,-0.465 0.528,-0.503C0.528,-0.526 0.525,-0.544 0.518,-0.559C0.511,-0.573 0.502,-0.584 0.491,-0.592C0.479,-0.6 0.466,-0.605 0.451,-0.608C0.436,-0.611 0.42,-0.612 0.404,-0.612L0.201,-0.612L0.201,-0.389Z" style="fill:white;fill-rule:nonzero;"/>
                </g>
                <g transform="matrix(30.2678,0,0,30.2678,620.066,66.0889)">
                    <path d="M0.38,-0.629C0.342,-0.629 0.309,-0.621 0.282,-0.606C0.254,-0.591 0.231,-0.57 0.214,-0.545C0.197,-0.519 0.184,-0.49 0.176,-0.457C0.167,-0.424 0.163,-0.391 0.163,-0.357C0.163,-0.323 0.167,-0.29 0.176,-0.257C0.184,-0.224 0.197,-0.195 0.214,-0.17C0.231,-0.144 0.254,-0.123 0.282,-0.108C0.309,-0.093 0.342,-0.085 0.38,-0.085C0.418,-0.085 0.451,-0.093 0.479,-0.108C0.506,-0.123 0.529,-0.144 0.546,-0.17C0.563,-0.195 0.576,-0.224 0.585,-0.257C0.593,-0.29 0.597,-0.323 0.597,-0.357C0.597,-0.391 0.593,-0.424 0.585,-0.457C0.576,-0.49 0.563,-0.519 0.546,-0.545C0.529,-0.57 0.506,-0.591 0.479,-0.606C0.451,-0.621 0.418,-0.629 0.38,-0.629ZM0.38,-0.731C0.433,-0.731 0.481,-0.721 0.524,-0.701C0.566,-0.681 0.602,-0.654 0.631,-0.62C0.66,-0.586 0.683,-0.546 0.699,-0.501C0.714,-0.456 0.722,-0.408 0.722,-0.357C0.722,-0.306 0.714,-0.257 0.699,-0.212C0.683,-0.167 0.66,-0.127 0.631,-0.093C0.602,-0.059 0.566,-0.032 0.524,-0.013C0.481,0.007 0.433,0.017 0.38,0.017C0.327,0.017 0.279,0.007 0.237,-0.013C0.194,-0.032 0.158,-0.059 0.129,-0.093C0.1,-0.127 0.077,-0.167 0.062,-0.212C0.046,-0.257 0.038,-0.306 0.038,-0.357C0.038,-0.408 0.046,-0.456 0.062,-0.501C0.077,-0.546 0.1,-0.586 0.129,-0.62C0.158,-0.654 0.194,-0.681 0.237,-0.701C0.279,-0.721 0.327,-0.731 0.38,-0.731Z" style="fill:white;fill-rule:nonzero;"/>
                </g>
                <g transform="matrix(30.2678,0,0,30.2678,643.069,66.0889)">
                    <path d="M0.076,-0.714L0.201,-0.714L0.201,-0.108L0.564,-0.108L0.564,-0L0.076,-0L0.076,-0.714Z" style="fill:white;fill-rule:nonzero;"/>
                </g>
            </g>
        </g>
    </g>
</svg>
